<?xml version="1.0" encoding="iso-8859-1"?>
<!-- Generator: Adobe Illustrator 19.0.0, SVG Export Plug-In . SVG Version: 6.00 Build 0)  -->
<svg version="1.1" id="Capa_1" xmlns="http://www.w3.org/2000/svg" xmlns:xlink="http://www.w3.org/1999/xlink" x="0px" y="0px"
	 viewBox="0 0 512 512" style="enable-background:new 0 0 512 512;" xml:space="preserve">
<g>
	<g>
		<g>
			<path d="M256,0C114.844,0,0,114.844,0,256s114.844,256,256,256s256-114.844,256-256S397.156,0,256,0z M354.052,338.969
				c4.167,4.167,4.167,10.917,0,15.083c-26.188,26.188-61.01,40.615-98.052,40.615c-5.896,0-10.667-4.771-10.667-10.667
				c0-5.896,4.771-10.667,10.667-10.667c31.344,0,60.802-12.208,82.969-34.365C343.135,334.802,349.885,334.802,354.052,338.969z
				 M121.24,129.906c-2.76,0-5.51-1.063-7.594-3.177c-4.135-4.198-4.094-10.958,0.104-15.083
				C151.917,74.042,202.438,53.333,256,53.333c5.896,0,10.667,4.771,10.667,10.667S261.896,74.667,256,74.667
				c-47.927,0-93.125,18.531-127.271,52.167C126.646,128.885,123.948,129.906,121.24,129.906z M157.948,173.031
				c-4.167-4.167-4.167-10.917,0-15.083c26.188-26.188,61.01-40.615,98.052-40.615c5.896,0,10.667,4.771,10.667,10.667
				s-4.771,10.667-10.667,10.667c-31.344,0-60.802,12.208-82.969,34.365c-2.083,2.083-4.813,3.125-7.542,3.125
				C162.76,176.156,160.031,175.115,157.948,173.031z M170.667,256c0-47.052,38.281-85.333,85.333-85.333
				s85.333,38.281,85.333,85.333S303.052,341.333,256,341.333S170.667,303.052,170.667,256z M399.302,399.302
				c-38.271,38.281-89.167,59.365-143.302,59.365c-5.896,0-10.667-4.771-10.667-10.667c0-5.896,4.771-10.667,10.667-10.667
				c48.438,0,93.979-18.865,128.219-53.115c4.167-4.167,10.917-4.167,15.083,0C403.469,388.385,403.469,395.135,399.302,399.302z"/>
			<circle cx="256" cy="256" r="21.333"/>
		</g>
	</g>
</g>
<g>
</g>
<g>
</g>
<g>
</g>
<g>
</g>
<g>
</g>
<g>
</g>
<g>
</g>
<g>
</g>
<g>
</g>
<g>
</g>
<g>
</g>
<g>
</g>
<g>
</g>
<g>
</g>
<g>
</g>
</svg>
